<?xml version="1.0" encoding="UTF-8" standalone="no"?>
<!DOCTYPE svg PUBLIC "-//W3C//DTD SVG 1.1//EN" "http://www.w3.org/Graphics/SVG/1.1/DTD/svg11.dtd">
<svg width="100%" height="100%" viewBox="0 0 512 512" version="1.1" xmlns="http://www.w3.org/2000/svg" xmlns:xlink="http://www.w3.org/1999/xlink" xml:space="preserve" xmlns:serif="http://www.serif.com/" style="fill-rule:evenodd;clip-rule:evenodd;stroke-linejoin:round;stroke-miterlimit:2;">
    <g transform="matrix(2.0793,0,0,2.0793,-278.832,-253.949)">
        <path d="M226,134.121C222.868,135.366 218.229,139.714 216.526,143C215.813,144.375 214.011,149.992 212.52,155.483C211.03,160.974 209.167,166.711 208.38,168.233C206.983,170.934 206.741,171 198.224,171.006C174.699,171.021 167.765,175.415 158.762,196.008C145.598,226.119 136.015,249.591 135.014,254.177C134.211,257.851 133.952,270.963 134.176,296.5L134.5,333.5L137.443,339.308C140.974,346.276 146.286,351.304 153.88,354.865L159.5,357.5L339.5,357.5L343.525,355.345C353.094,350.22 376.485,319.746 378.877,309.289C379.584,306.2 380.066,284.269 380.236,247.5C380.482,194.338 380.377,190.181 378.674,185.768C376.359,179.769 369.557,173.63 363.549,172.117C361.076,171.494 350.907,171 340.557,171L322,171L322.017,168.75C322.027,167.512 323.369,162 325,156.5C328.96,143.144 328.945,138.973 324.923,135.589L321.847,133L275.173,133.063C246.748,133.102 227.523,133.515 226,134.121" style="fill:white;"/>
        <path d="M226,134.121C222.868,135.366 218.229,139.714 216.526,143C215.813,144.375 214.011,149.992 212.52,155.483C211.03,160.974 209.167,166.711 208.38,168.233C206.983,170.934 206.741,171 198.224,171.006C174.699,171.021 167.765,175.415 158.762,196.008C145.598,226.119 136.015,249.591 135.014,254.177C134.211,257.851 133.952,270.963 134.176,296.5L134.5,333.5L137.443,339.308C140.974,346.276 146.286,351.304 153.88,354.865L159.5,357.5L339.5,357.5L343.525,355.345C353.094,350.22 376.485,319.746 378.877,309.289C379.584,306.2 380.066,284.269 380.236,247.5C380.482,194.338 380.377,190.181 378.674,185.768C376.359,179.769 369.557,173.63 363.549,172.117C361.076,171.494 350.907,171 340.557,171L322,171L322.017,168.75C322.027,167.512 323.369,162 325,156.5C328.96,143.144 328.945,138.973 324.923,135.589L321.847,133L275.173,133.063C246.748,133.102 227.523,133.515 226,134.121M231.5,144.766C228.951,145.359 228.491,146.119 225.912,154C223.382,161.729 215,191.756 215,193.09C215,193.655 232.197,193.919 258.713,193.761L302.426,193.5L303.162,190.5C303.567,188.85 305.312,181.286 307.039,173.692C308.766,166.097 311.236,156.657 312.528,152.713C313.819,148.769 314.642,145.308 314.355,145.021C313.705,144.372 234.247,144.127 231.5,144.766M269.278,161.25C268.746,161.938 268.04,163.261 267.709,164.192C266.321,168.096 262.663,169.104 247.673,169.711C233.614,170.281 233.153,170.369 232.093,172.696C231.492,174.015 231,175.523 231,176.047C231,176.605 236.748,177 244.874,177C260.401,177 265.051,175.918 270.648,171.005C273.926,168.126 274.478,167.996 283.785,167.9C296.175,167.773 298.588,167.117 298.225,163.972C298.074,162.66 297.399,161.237 296.725,160.809C294.587,159.451 270.369,159.84 269.278,161.25M183.007,183.593C174.979,187.075 173.221,190.182 159.588,225C157.111,231.325 153.047,241.45 150.556,247.5L146.026,258.5L146.017,294C146.008,327.458 146.12,329.684 147.96,332.701C151.973,339.283 148.351,339.002 228.7,338.985C268.74,338.976 302.068,338.609 302.762,338.168C303.778,337.523 303.778,336.698 302.762,333.934C301.833,331.406 301.5,321.002 301.5,294.5L301.5,258.5L315.121,224.951C329.573,189.351 331.009,186.134 333.592,183.551C335.111,182.032 334.654,181.933 327.37,182.206L319.509,182.5L317.229,188.907C315.302,194.319 315.123,195.842 316.072,198.719C317.023,201.599 316.925,202.426 315.436,204.07C313.724,205.962 311.991,206.008 251.588,205.758L189.5,205.5L189.202,202.945C188.735,198.928 192.234,195.342 197.374,194.571C201.576,193.941 201.837,193.704 202.875,189.584C203.474,187.204 204.245,184.525 204.589,183.629C205.14,182.194 204.101,182.005 195.857,182.039C189.782,182.065 185.275,182.61 183.007,183.593M352,186.103C346.612,189.33 342.05,194.05 339.535,199C338.278,201.475 333.078,214.3 327.979,227.5C322.88,240.7 317.537,254.425 316.104,258L313.5,264.5L313.5,330.5L316.146,335.001C319.96,341.487 322.286,343.225 327.873,343.762C337.285,344.666 343.223,340.759 356.742,324.769C368.359,311.028 367.344,316.751 368.234,260C368.66,232.775 368.734,205.804 368.396,200.064C367.825,190.348 367.588,189.434 364.968,186.814C361.516,183.362 356.992,183.114 352,186.103M338.698,219.781C337.281,221.346 335.088,228.492 335.024,231.75C335.01,232.496 336.312,233.006 338.25,233.015C340.038,233.024 341.995,233.361 342.6,233.765C345.97,236.015 347.617,245.71 345.975,253.622C344.834,259.116 344.743,259.224 339.159,261.692C336.047,263.069 333.169,264.713 332.765,265.347C332.361,265.981 332.024,271.395 332.015,277.378L332,288.256L336.204,287.583C341.628,286.716 345.955,283.994 350.976,278.29C356.395,272.133 358.05,266.179 358.7,250.5C359.284,236.421 358.489,231.487 354.752,225.988C350.935,220.371 341.474,216.713 338.698,219.781M175.365,228.919C170.626,231.809 169.248,236.653 163.461,270.75C162.935,273.852 162.705,274 158.422,274C154.688,274 153.797,274.376 153.107,276.241C151.948,279.372 153.49,284.085 156.547,286.758L159.13,289.016L275.284,288.5L277.204,285.929C279.455,282.914 279.827,277.913 278.048,274.589C276.245,271.22 278.661,263.643 286.576,247.847C293.392,234.246 294.097,231.303 291.171,228.655C289.516,227.157 284.091,227 233.921,227.004C181.118,227.007 178.352,227.098 175.365,228.919M179.972,244.75C179.329,247.912 177.497,256.041 175.901,262.814C174.306,269.586 173,275.324 173,275.564C173,275.804 193.691,276 218.981,276L264.962,276L265.619,273.25C268.833,259.798 270.534,254.76 274.33,247.447L278.716,239L181.142,239L179.972,244.75M331.701,245.632C331.316,246.018 331,247.415 331,248.736C331,250.656 331.452,251.075 333.25,250.82C334.894,250.586 335.5,249.831 335.5,248.014C335.5,245.6 333.185,244.149 331.701,245.632M182.149,294.675C176.974,297.258 173.49,303.286 173.55,309.551C173.612,315.868 175.792,319.548 180.828,321.834C184.037,323.29 189.938,323.538 227.665,323.799C274.66,324.124 275.995,323.99 279.547,318.569C280.483,317.14 281.473,313.983 281.747,311.554C282.37,306.021 279.228,299.012 274.664,295.757C271.512,293.508 271.339,293.499 228.5,293.251C189.989,293.028 185.15,293.177 182.149,294.675M185.452,306.433C184.264,308.246 184.121,309.357 184.889,310.793C185.874,312.633 187.713,312.742 225.703,313.209C247.583,313.478 266.613,313.398 267.992,313.033C269.772,312.561 270.594,311.571 270.822,309.623C271.497,303.881 272.405,304 227.901,304L187.046,304L185.452,306.433" style="fill:rgb(25,34,42);"/>
    </g>
</svg>
